<?xml version="1.0" standalone="no"?><!DOCTYPE svg PUBLIC "-//W3C//DTD SVG 1.1//EN" "http://www.w3.org/Graphics/SVG/1.1/DTD/svg11.dtd"><svg t="1563268610788" class="icon" viewBox="0 0 1024 1024" version="1.1" xmlns="http://www.w3.org/2000/svg" p-id="9509" xmlns:xlink="http://www.w3.org/1999/xlink" width="128" height="128"><defs><style type="text/css"></style></defs><path d="M540.074667 53.205333C776.021333 259.285333 896 439.168 896 597.333333c0 224-174.805333 384-384 384s-384-160-384-384c0-158.165333 119.936-338.090667 355.925333-544.128L512 28.672l28.074667 24.533333zM213.333333 597.333333c0 175.061333 134.997333 298.666667 298.666667 298.666667s298.666667-123.605333 298.666667-298.666667c0-121.6-98.432-274.517333-298.666667-454.954666C311.765333 322.858667 213.333333 475.733333 213.333333 597.333333z m298.666667 256v-85.333333a170.666667 170.666667 0 0 0 170.666667-170.666667h85.333333a256 256 0 0 1-256 256z" p-id="9510" fill="#1296db"></path></svg>
