<?xml version="1.0" standalone="no"?><!DOCTYPE svg PUBLIC "-//W3C//DTD SVG 1.1//EN" "http://www.w3.org/Graphics/SVG/1.1/DTD/svg11.dtd"><svg t="1552053272537" class="icon" style="" viewBox="0 0 1024 1024" version="1.1" xmlns="http://www.w3.org/2000/svg" p-id="1179" xmlns:xlink="http://www.w3.org/1999/xlink" width="16" height="16"><defs><style type="text/css"></style></defs><path d="M460.35246786 794.43116408c-187.04625604 0-338.68973874-151.64348348-338.68973952-338.7090321C121.66272834 268.67587672 273.30621181 117.03239323 460.35246786 117.03239323c187.06554863 0 338.70903211 151.64348348 338.70903209 338.68973875 0 187.06554863-151.64348348 338.70903211-338.70903209 338.7090321z m0-77.17225607c144.44717017 0 261.53677603-117.08960587 261.53677602-261.53677603 0-144.42787757-117.10889845-261.51748267-261.53677602-261.51748267-144.42787757 0-261.51748267 117.08960587-261.51748344 261.51748267 0 144.44717017 117.08960587 261.53677603 261.51748344 261.53677603z" fill="#555555" p-id="1180"></path><path d="M633.18407732 683.11060588l60.62618753-60.6261875 212.21894092 212.21894093-60.62618752 60.62618751-212.21894093-212.21894094Z" fill="#555555" p-id="1181"></path></svg>